<svg xmlns="http://www.w3.org/2000/svg" width="350" height="350" viewBox="14.5 14.5 350 350">
  <metadata><?xpacket begin="﻿" id="W5M0MpCehiHzreSzNTczkc9d"?>
<x:xmpmeta xmlns:x="adobe:ns:meta/" x:xmptk="Adobe XMP Core 5.6-c138 79.159824, 2016/09/14-01:09:01        ">
   <rdf:RDF xmlns:rdf="http://www.w3.org/1999/02/22-rdf-syntax-ns#">
      <rdf:Description rdf:about=""/>
   </rdf:RDF>
</x:xmpmeta>
                                                                                                    
                                                                                                    
                                                                                                    
                                                                                                    
                                                                                                    
                                                                                                    
                                                                                                    
                                                                                                    
                                                                                                    
                                                                                                    
                                                                                                    
                                                                                                    
                                                                                                    
                                                                                                    
                                                                                                    
                                                                                                    
                                                                                                    
                                                                                                    
                                                                                                    
                                                                                                    
                           
<?xpacket end="w"?></metadata>
<defs>
    <style>
      .cls-1 {
        fill: #fff;
        fill-rule: evenodd;
      }
    </style>
  </defs>
  <rect width="379" height="379"/>
  <path id="ds" class="cls-1" d="M122.9,336.608l-64.1-.439V316.717c-6.338,10.647-8.155,11.41-17.345,16.556A62.779,62.779,0,0,1,10.241,341q-16.957,0-30.423-6.142a58.076,58.076,0,0,1-22.738-18.6Q-52.19,303.794-57.1,285.1t-4.912-43.784q0-24.744,4.912-43.346t14.182-30.886A58.692,58.692,0,0,1-20.182,148.66q13.466-6.141,30.423-6.142a64.662,64.662,0,0,1,26.62,5.44,60.242,60.242,0,0,1,21.55,16.5V76.008H122.9v260.6ZM17.45,207.436a22.147,22.147,0,0,0-8.636,7.546,33.656,33.656,0,0,0-4.833,11.67,69.923,69.923,0,0,0-1.505,15.18V251.5a69.91,69.91,0,0,0,1.505,15.18A31.8,31.8,0,0,0,8.815,278.17a22.667,22.667,0,0,0,8.636,7.371,28.842,28.842,0,0,0,12.914,2.632,25.262,25.262,0,0,0,12.993-3.159,25.9,25.9,0,0,0,8.873-8.686,40.928,40.928,0,0,0,5.15-12.811,70.432,70.432,0,0,0,1.664-15.706v-2.294a71.631,71.631,0,0,0-1.664-15.794,40.88,40.88,0,0,0-5.15-12.9,26.72,26.72,0,0,0-8.873-8.774A24.727,24.727,0,0,0,30.364,204.8,28.842,28.842,0,0,0,17.45,207.436Zm256.14-61.672a83.36,83.36,0,0,1,26.3,10.442,56.794,56.794,0,0,1,18.7,18.865q7.131,11.673,7.131,28.517H265.667a17.335,17.335,0,0,0-2.535-9.213,17.809,17.809,0,0,0-5.784-5.616,21.876,21.876,0,0,0-7.368-2.72,42.2,42.2,0,0,0-7.289-.7q-2.061,0-6.021.175a32.946,32.946,0,0,0-7.843,1.317,17.931,17.931,0,0,0-6.735,3.6,8.767,8.767,0,0,0-2.852,7.02,8.935,8.935,0,0,0,4.754,7.984,41.946,41.946,0,0,0,12.518,4.651q7.761,1.757,17.746,3.159t20.362,3.6a138.855,138.855,0,0,1,20.361,5.967,61.161,61.161,0,0,1,17.747,10.266,48.442,48.442,0,0,1,12.517,16.32Q330,259.22,330,273.783q0,19.479-7.21,32.465a56.516,56.516,0,0,1-19.41,20.708,81.867,81.867,0,0,1-28.284,10.88A174.407,174.407,0,0,1,241.424,341,139.808,139.808,0,0,1,209.5,337.31a90.314,90.314,0,0,1-28.283-11.67,63.994,63.994,0,0,1-20.282-20.532q-7.766-12.545-7.765-30.272h59.9v1.4q0.156,6.843,3.248,11.143a22.139,22.139,0,0,0,7.447,6.669,30.509,30.509,0,0,0,9.191,3.246,48,48,0,0,0,8.477.878q3.327,0,8-.351a39.445,39.445,0,0,0,8.873-1.667,17.861,17.861,0,0,0,7.13-4.124q2.931-2.805,2.932-7.9a9.682,9.682,0,0,0-4.754-8.424,41.634,41.634,0,0,0-12.518-5.177q-7.765-2.015-17.746-3.6T212.981,262.9a164.616,164.616,0,0,1-20.361-6.23A62.131,62.131,0,0,1,174.873,246.5a48.168,48.168,0,0,1-12.517-15.97q-4.753-9.562-4.754-23.6,0-18.775,7.13-31.149a55.362,55.362,0,0,1,19.015-19.743,81.533,81.533,0,0,1,27.412-10.441,167.214,167.214,0,0,1,32.483-3.071A138.868,138.868,0,0,1,273.59,145.764Z"/>
</svg>
